<svg
 xmlns="http://www.w3.org/2000/svg" xmlns:xlink="http://www.w3.org/1999/xlink" width="300" zoomAndPan="magnify" viewBox="0 0 375 374.999991" height="300" preserveAspectRatio="xMidYMid meet" version="1.0"><defs><g/><clipPath id="6542fb1399"><path d="M 195 139 L 236 139 L 236 170 L 195 170 Z M 195 139 " clip-rule="nonzero"/></clipPath><clipPath id="363bc9eb18"><path d="M 203.015625 182.613281 L 186.695312 154.800781 L 226.800781 131.265625 L 243.121094 159.082031 Z M 203.015625 182.613281 " clip-rule="nonzero"/></clipPath><clipPath id="9885423e74"><path d="M 203.015625 182.613281 L 186.695312 154.800781 L 226.800781 131.265625 L 243.121094 159.082031 Z M 203.015625 182.613281 " clip-rule="nonzero"/></clipPath><clipPath id="10a0736504"><path d="M 172 122 L 202 122 L 202 165.957031 L 172 165.957031 Z M 172 122 " clip-rule="nonzero"/></clipPath><clipPath id="70bdcbe564"><path d="M 138 138 L 179 138 L 179 168 L 138 168 Z M 138 138 " clip-rule="nonzero"/></clipPath><clipPath id="65ae686364"><path d="M 186.628906 154.652344 L 170.382812 182.511719 L 130.210938 159.085938 L 146.457031 131.230469 Z M 186.628906 154.652344 " clip-rule="nonzero"/></clipPath><clipPath id="f91b516701"><path d="M 186.628906 154.652344 L 170.382812 182.511719 L 130.210938 159.085938 L 146.457031 131.230469 Z M 186.628906 154.652344 " clip-rule="nonzero"/></clipPath></defs><g clip-path="url(#6542fb1399)"><g clip-path="url(#363bc9eb18)"><g clip-path="url(#9885423e74)"><path fill="#009cf3" d="M 207.65625 147.3125 L 195.875 169.292969 L 220.203125 168.980469 C 225.488281 169.132812 230.636719 166.394531 233.308594 161.414062 C 237.101562 154.332031 234.4375 145.433594 227.351562 141.539062 C 220.273438 137.644531 211.457031 140.226562 207.65625 147.3125 Z M 207.65625 147.3125 " fill-opacity="1" fill-rule="nonzero"/></g></g></g><g clip-path="url(#10a0736504)"><path fill="#009cf3" d="M 199.414062 144.195312 L 186.414062 165.484375 L 174.371094 144.339844 C 171.566406 139.859375 171.324219 134.035156 174.269531 129.210938 C 178.457031 122.351562 187.480469 120.148438 194.421875 124.285156 C 201.367188 128.421875 203.601562 137.332031 199.414062 144.195312 Z M 199.414062 144.195312 " fill-opacity="1" fill-rule="nonzero"/></g><g clip-path="url(#70bdcbe564)"><g clip-path="url(#65ae686364)"><g clip-path="url(#f91b516701)"><path fill="#009cf3" d="M 153.582031 167.910156 L 178.519531 167.40625 L 166.320312 146.351562 C 163.863281 141.675781 158.953125 138.527344 153.300781 138.640625 C 145.269531 138.804688 138.820312 145.488281 138.894531 153.570312 C 138.972656 161.652344 145.542969 168.070312 153.582031 167.910156 Z M 153.582031 167.910156 " fill-opacity="1" fill-rule="nonzero"/></g></g></g><g fill="#009cf3" fill-opacity="1"><g transform="translate(84.205946, 223.659593)"><g><path d="M 29.8125 -37.890625 L 35.375 -37.890625 L 35.375 0 L 29.8125 0 L 29.8125 -17.359375 L 8.609375 -17.359375 L 8.609375 0 L 3 0 L 3 -37.890625 L 8.609375 -37.890625 L 8.609375 -22.546875 L 29.8125 -22.546875 Z M 29.8125 -37.890625 "/></g></g></g><g fill="#009cf3" fill-opacity="1"><g transform="translate(122.839772, 223.659593)"><g><path d="M 20.578125 -38.421875 C 23.140625 -38.421875 25.5625 -37.90625 27.84375 -36.875 C 30.125 -35.84375 32.109375 -34.441406 33.796875 -32.671875 C 35.492188 -30.910156 36.835938 -28.84375 37.828125 -26.46875 C 38.828125 -24.101562 39.328125 -21.601562 39.328125 -18.96875 C 39.328125 -16.300781 38.828125 -13.789062 37.828125 -11.4375 C 36.835938 -9.082031 35.484375 -7.023438 33.765625 -5.265625 C 32.054688 -3.503906 30.0625 -2.101562 27.78125 -1.0625 C 25.507812 -0.03125 23.085938 0.484375 20.515625 0.484375 C 17.953125 0.484375 15.53125 -0.03125 13.25 -1.0625 C 10.96875 -2.101562 8.976562 -3.503906 7.28125 -5.265625 C 5.59375 -7.023438 4.257812 -9.082031 3.28125 -11.4375 C 2.300781 -13.789062 1.8125 -16.300781 1.8125 -18.96875 C 1.8125 -21.601562 2.300781 -24.101562 3.28125 -26.46875 C 4.257812 -28.84375 5.601562 -30.910156 7.3125 -32.671875 C 9.03125 -34.441406 11.023438 -35.84375 13.296875 -36.875 C 15.578125 -37.90625 18.003906 -38.421875 20.578125 -38.421875 Z M 20.578125 -4.8125 C 22.390625 -4.8125 24.085938 -5.175781 25.671875 -5.90625 C 27.253906 -6.632812 28.632812 -7.640625 29.8125 -8.921875 C 30.988281 -10.203125 31.914062 -11.707031 32.59375 -13.4375 C 33.269531 -15.164062 33.609375 -17.007812 33.609375 -18.96875 C 33.609375 -20.925781 33.269531 -22.757812 32.59375 -24.46875 C 31.914062 -26.1875 30.988281 -27.6875 29.8125 -28.96875 C 28.632812 -30.25 27.253906 -31.253906 25.671875 -31.984375 C 24.085938 -32.710938 22.390625 -33.078125 20.578125 -33.078125 C 18.753906 -33.078125 17.050781 -32.710938 15.46875 -31.984375 C 13.882812 -31.253906 12.503906 -30.25 11.328125 -28.96875 C 10.148438 -27.6875 9.210938 -26.1875 8.515625 -24.46875 C 7.828125 -22.757812 7.484375 -20.925781 7.484375 -18.96875 C 7.484375 -17.007812 7.828125 -15.164062 8.515625 -13.4375 C 9.210938 -11.707031 10.148438 -10.203125 11.328125 -8.921875 C 12.503906 -7.640625 13.882812 -6.632812 15.46875 -5.90625 C 17.050781 -5.175781 18.753906 -4.8125 20.578125 -4.8125 Z M 20.578125 -4.8125 "/></g></g></g><g fill="#009cf3" fill-opacity="1"><g transform="translate(163.824763, 223.659593)"><g><path d="M 35.640625 -37.890625 L 35.640625 0 L 29.984375 0 L 8.8125 -29.0625 L 8.8125 0 L 3 0 L 3 -37.890625 L 8.875 -37.890625 L 30.03125 -8.65625 L 30.03125 -37.890625 Z M 35.640625 -37.890625 "/></g></g></g><g fill="#009cf3" fill-opacity="1"><g transform="translate(202.565461, 223.659593)"><g><path d="M 26.125 -37.890625 L 26.125 -32.859375 L 8.546875 -32.859375 L 8.546875 -22.546875 L 24.203125 -22.546875 L 24.203125 -17.359375 L 8.546875 -17.359375 L 8.546875 -5.1875 L 26.125 -5.1875 L 26.125 0 L 3 0 L 3 -37.890625 Z M 26.125 -37.890625 "/></g></g></g><g fill="#009cf3" fill-opacity="1"><g transform="translate(231.901515, 223.659593)"><g><path d="M 28.265625 -10.640625 C 28.265625 -9.035156 27.941406 -7.546875 27.296875 -6.171875 C 26.660156 -4.796875 25.71875 -3.59375 24.46875 -2.5625 C 22.007812 -0.5 18.859375 0.53125 15.015625 0.53125 C 12.023438 0.53125 9.316406 -0.0820312 6.890625 -1.3125 C 4.472656 -2.539062 2.691406 -4.1875 1.546875 -6.25 L 6.3125 -8.703125 C 7.019531 -7.421875 8.144531 -6.429688 9.6875 -5.734375 C 11.238281 -5.046875 13.015625 -4.703125 15.015625 -4.703125 C 20.179688 -4.703125 22.765625 -6.679688 22.765625 -10.640625 C 22.765625 -11.378906 22.628906 -12.015625 22.359375 -12.546875 C 22.097656 -13.085938 21.695312 -13.585938 21.15625 -14.046875 C 19.875 -15.117188 17.578125 -16.082031 14.265625 -16.9375 C 12.273438 -17.4375 10.582031 -17.988281 9.1875 -18.59375 C 7.800781 -19.195312 6.644531 -19.910156 5.71875 -20.734375 C 3.46875 -22.546875 2.34375 -24.953125 2.34375 -27.953125 C 2.34375 -29.441406 2.632812 -30.835938 3.21875 -32.140625 C 3.8125 -33.441406 4.644531 -34.570312 5.71875 -35.53125 C 6.820312 -36.5 8.113281 -37.222656 9.59375 -37.703125 C 11.070312 -38.179688 12.703125 -38.421875 14.484375 -38.421875 C 17.078125 -38.421875 19.46875 -37.921875 21.65625 -36.921875 C 23.851562 -35.921875 25.523438 -34.515625 26.671875 -32.703125 L 22.34375 -30.03125 C 21.300781 -31.28125 20.101562 -32.160156 18.75 -32.671875 C 17.394531 -33.191406 15.972656 -33.453125 14.484375 -33.453125 C 13.410156 -33.453125 12.425781 -33.273438 11.53125 -32.921875 C 10.644531 -32.566406 9.898438 -32.140625 9.296875 -31.640625 C 8.796875 -31.210938 8.429688 -30.6875 8.203125 -30.0625 C 7.972656 -29.4375 7.859375 -28.765625 7.859375 -28.046875 C 7.859375 -27.585938 7.925781 -27.117188 8.0625 -26.640625 C 8.207031 -26.160156 8.546875 -25.660156 9.078125 -25.140625 C 9.617188 -24.628906 10.40625 -24.128906 11.4375 -23.640625 C 12.46875 -23.160156 13.875 -22.691406 15.65625 -22.234375 C 17.789062 -21.691406 19.585938 -21.109375 21.046875 -20.484375 C 22.515625 -19.867188 23.742188 -19.132812 24.734375 -18.28125 C 27.085938 -16.351562 28.265625 -13.804688 28.265625 -10.640625 Z M 28.265625 -10.640625 "/></g></g></g><g fill="#009cf3" fill-opacity="1"><g transform="translate(262.894073, 223.659593)"><g><path d="M 10.53125 -32.859375 L 0.265625 -32.859375 L 0.265625 -37.890625 L 26.390625 -37.890625 L 26.390625 -32.859375 L 16.078125 -32.859375 L 16.078125 0 L 10.53125 0 Z M 10.53125 -32.859375 "/></g></g></g><g fill="#009cf3" fill-opacity="1"><g transform="translate(91.482581, 252.587464)"><g><path d="M 6.734375 -5.3125 C 7.242188 -5.132812 7.660156 -4.84375 7.984375 -4.4375 C 8.316406 -4.039062 8.484375 -3.515625 8.484375 -2.859375 C 8.484375 -1.835938 8.179688 -1.101562 7.578125 -0.65625 C 6.984375 -0.21875 6.253906 0 5.390625 0 L 1.828125 0 C 1.640625 0 1.476562 -0.0625 1.34375 -0.1875 C 1.21875 -0.320312 1.15625 -0.484375 1.15625 -0.671875 L 1.15625 -9.0625 C 1.15625 -9.25 1.21875 -9.40625 1.34375 -9.53125 C 1.476562 -9.664062 1.640625 -9.734375 1.828125 -9.734375 L 5.390625 -9.734375 C 6.234375 -9.734375 6.875 -9.523438 7.3125 -9.109375 C 7.757812 -8.691406 7.984375 -8.085938 7.984375 -7.296875 C 7.984375 -6.859375 7.875 -6.460938 7.65625 -6.109375 C 7.445312 -5.765625 7.140625 -5.5 6.734375 -5.3125 Z M 6.546875 -7.09375 C 6.546875 -7.53125 6.425781 -7.859375 6.1875 -8.078125 C 5.957031 -8.304688 5.628906 -8.421875 5.203125 -8.421875 L 2.578125 -8.421875 L 2.578125 -5.71875 L 5.234375 -5.71875 C 5.609375 -5.726562 5.921875 -5.847656 6.171875 -6.078125 C 6.421875 -6.316406 6.546875 -6.65625 6.546875 -7.09375 Z M 5.375 -1.28125 C 5.882812 -1.28125 6.289062 -1.410156 6.59375 -1.671875 C 6.90625 -1.941406 7.0625 -2.335938 7.0625 -2.859375 C 7.0625 -3.890625 6.476562 -4.40625 5.3125 -4.40625 L 2.578125 -4.40625 L 2.578125 -1.28125 Z M 5.375 -1.28125 "/></g></g></g><g fill="#009cf3" fill-opacity="1"><g transform="translate(100.560539, 252.587464)"><g><path d="M 8.5625 -1.109375 C 8.65625 -1.046875 8.726562 -0.960938 8.78125 -0.859375 C 8.84375 -0.765625 8.875 -0.664062 8.875 -0.5625 C 8.875 -0.375 8.8125 -0.234375 8.6875 -0.140625 C 8.5625 -0.046875 8.410156 0 8.234375 0 C 8.054688 0 7.90625 -0.0351562 7.78125 -0.109375 C 7.507812 -0.265625 7.285156 -0.519531 7.109375 -0.875 C 6.929688 -1.226562 6.84375 -1.75 6.84375 -2.4375 C 6.84375 -2.894531 6.703125 -3.234375 6.421875 -3.453125 C 6.140625 -3.679688 5.78125 -3.796875 5.34375 -3.796875 L 2.53125 -3.796875 L 2.53125 -0.671875 C 2.53125 -0.472656 2.472656 -0.3125 2.359375 -0.1875 C 2.253906 -0.0625 2.113281 0 1.9375 0 C 1.71875 0 1.53125 -0.0625 1.375 -0.1875 C 1.226562 -0.320312 1.15625 -0.484375 1.15625 -0.671875 L 1.15625 -9.0625 C 1.15625 -9.25 1.21875 -9.40625 1.34375 -9.53125 C 1.476562 -9.664062 1.640625 -9.734375 1.828125 -9.734375 L 5.734375 -9.734375 C 6.234375 -9.734375 6.691406 -9.609375 7.109375 -9.359375 C 7.523438 -9.117188 7.859375 -8.78125 8.109375 -8.34375 C 8.359375 -7.914062 8.484375 -7.429688 8.484375 -6.890625 C 8.484375 -6.378906 8.34375 -5.894531 8.0625 -5.4375 C 7.78125 -4.988281 7.425781 -4.65625 7 -4.4375 C 7.34375 -4.257812 7.613281 -4.007812 7.8125 -3.6875 C 8.007812 -3.375 8.117188 -3.007812 8.140625 -2.59375 C 8.171875 -2.070312 8.207031 -1.710938 8.25 -1.515625 C 8.300781 -1.328125 8.40625 -1.191406 8.5625 -1.109375 Z M 5.703125 -4.953125 C 5.929688 -4.972656 6.148438 -5.066406 6.359375 -5.234375 C 6.566406 -5.398438 6.734375 -5.625 6.859375 -5.90625 C 6.992188 -6.1875 7.0625 -6.503906 7.0625 -6.859375 C 7.0625 -7.296875 6.925781 -7.671875 6.65625 -7.984375 C 6.382812 -8.296875 6.050781 -8.453125 5.65625 -8.453125 L 2.53125 -8.453125 L 2.53125 -4.953125 Z M 5.703125 -4.953125 "/></g></g></g><g fill="#009cf3" fill-opacity="1"><g transform="translate(110.013839, 252.587464)"><g><path d="M 2.53125 -0.6875 C 2.53125 -0.488281 2.457031 -0.320312 2.3125 -0.1875 C 2.175781 -0.0625 2.015625 0 1.828125 0 C 1.628906 0 1.46875 -0.0625 1.34375 -0.1875 C 1.21875 -0.320312 1.15625 -0.488281 1.15625 -0.6875 L 1.15625 -9.0625 C 1.15625 -9.25 1.21875 -9.40625 1.34375 -9.53125 C 1.476562 -9.664062 1.644531 -9.734375 1.84375 -9.734375 C 2.03125 -9.734375 2.191406 -9.664062 2.328125 -9.53125 C 2.460938 -9.40625 2.53125 -9.25 2.53125 -9.0625 Z M 2.53125 -0.6875 "/></g></g></g><g fill="#009cf3" fill-opacity="1"><g transform="translate(113.697844, 252.587464)"><g><path d="M 8.421875 -9.734375 C 8.597656 -9.734375 8.742188 -9.675781 8.859375 -9.5625 C 8.972656 -9.445312 9.03125 -9.300781 9.03125 -9.125 L 9.03125 -0.6875 C 9.03125 -0.488281 8.96875 -0.320312 8.84375 -0.1875 C 8.71875 -0.0625 8.554688 0 8.359375 0 C 8.253906 0 8.148438 -0.015625 8.046875 -0.046875 C 7.953125 -0.078125 7.878906 -0.125 7.828125 -0.1875 L 2.359375 -7.3125 L 2.359375 -0.609375 C 2.359375 -0.429688 2.300781 -0.285156 2.1875 -0.171875 C 2.070312 -0.0546875 1.925781 0 1.75 0 C 1.570312 0 1.425781 -0.0546875 1.3125 -0.171875 C 1.207031 -0.285156 1.15625 -0.429688 1.15625 -0.609375 L 1.15625 -9.0625 C 1.15625 -9.257812 1.21875 -9.421875 1.34375 -9.546875 C 1.46875 -9.671875 1.625 -9.734375 1.8125 -9.734375 C 1.914062 -9.734375 2.019531 -9.710938 2.125 -9.671875 C 2.226562 -9.628906 2.304688 -9.570312 2.359375 -9.5 L 7.8125 -2.359375 L 7.8125 -9.125 C 7.8125 -9.300781 7.867188 -9.445312 7.984375 -9.5625 C 8.097656 -9.675781 8.242188 -9.734375 8.421875 -9.734375 Z M 8.421875 -9.734375 "/></g></g></g><g fill="#009cf3" fill-opacity="1"><g transform="translate(123.874044, 252.587464)"><g><path d="M 8.296875 -5.125 C 8.484375 -5.125 8.640625 -5.054688 8.765625 -4.921875 C 8.890625 -4.796875 8.953125 -4.640625 8.953125 -4.453125 L 8.953125 -1.328125 C 8.953125 -1.078125 8.84375 -0.878906 8.625 -0.734375 C 8.195312 -0.453125 7.726562 -0.234375 7.21875 -0.078125 C 6.707031 0.0664062 6.179688 0.140625 5.640625 0.140625 C 4.710938 0.140625 3.863281 -0.0820312 3.09375 -0.53125 C 2.320312 -0.976562 1.710938 -1.582031 1.265625 -2.34375 C 0.816406 -3.101562 0.59375 -3.941406 0.59375 -4.859375 C 0.59375 -5.785156 0.816406 -6.628906 1.265625 -7.390625 C 1.710938 -8.148438 2.320312 -8.753906 3.09375 -9.203125 C 3.863281 -9.648438 4.710938 -9.875 5.640625 -9.875 C 6.109375 -9.875 6.554688 -9.820312 6.984375 -9.71875 C 7.421875 -9.613281 7.8125 -9.460938 8.15625 -9.265625 C 8.257812 -9.203125 8.335938 -9.125 8.390625 -9.03125 C 8.453125 -8.9375 8.484375 -8.832031 8.484375 -8.71875 C 8.484375 -8.53125 8.421875 -8.367188 8.296875 -8.234375 C 8.171875 -8.097656 8.019531 -8.03125 7.84375 -8.03125 C 7.707031 -8.03125 7.585938 -8.066406 7.484375 -8.140625 C 6.878906 -8.410156 6.265625 -8.546875 5.640625 -8.546875 C 4.972656 -8.546875 4.363281 -8.382812 3.8125 -8.0625 C 3.257812 -7.738281 2.820312 -7.289062 2.5 -6.71875 C 2.1875 -6.15625 2.03125 -5.535156 2.03125 -4.859375 C 2.03125 -4.191406 2.1875 -3.578125 2.5 -3.015625 C 2.820312 -2.453125 3.257812 -2.003906 3.8125 -1.671875 C 4.363281 -1.347656 4.972656 -1.1875 5.640625 -1.1875 C 5.960938 -1.1875 6.296875 -1.222656 6.640625 -1.296875 C 6.984375 -1.367188 7.28125 -1.460938 7.53125 -1.578125 L 7.53125 -3.796875 L 5.859375 -3.796875 C 5.671875 -3.796875 5.507812 -3.859375 5.375 -3.984375 C 5.25 -4.109375 5.1875 -4.265625 5.1875 -4.453125 C 5.1875 -4.640625 5.25 -4.796875 5.375 -4.921875 C 5.507812 -5.054688 5.671875 -5.125 5.859375 -5.125 Z M 8.296875 -5.125 "/></g></g></g><g fill="#009cf3" fill-opacity="1"><g transform="translate(133.535878, 252.587464)"><g/></g></g><g fill="#009cf3" fill-opacity="1"><g transform="translate(137.386707, 252.587464)"><g><path d="M 2.515625 -8.453125 L 2.515625 -5.578125 L 5.9375 -5.578125 C 6.132812 -5.578125 6.296875 -5.515625 6.421875 -5.390625 C 6.546875 -5.273438 6.609375 -5.117188 6.609375 -4.921875 C 6.609375 -4.753906 6.546875 -4.609375 6.421875 -4.484375 C 6.296875 -4.367188 6.132812 -4.3125 5.9375 -4.3125 L 2.515625 -4.3125 L 2.515625 -0.671875 C 2.515625 -0.484375 2.445312 -0.320312 2.3125 -0.1875 C 2.175781 -0.0625 2.015625 0 1.828125 0 C 1.640625 0 1.476562 -0.0625 1.34375 -0.1875 C 1.21875 -0.320312 1.15625 -0.484375 1.15625 -0.671875 L 1.15625 -9.0625 C 1.15625 -9.25 1.21875 -9.40625 1.34375 -9.53125 C 1.476562 -9.664062 1.640625 -9.734375 1.828125 -9.734375 L 6.5625 -9.734375 C 6.757812 -9.734375 6.921875 -9.671875 7.046875 -9.546875 C 7.171875 -9.429688 7.234375 -9.273438 7.234375 -9.078125 C 7.234375 -8.910156 7.164062 -8.765625 7.03125 -8.640625 C 6.90625 -8.515625 6.75 -8.453125 6.5625 -8.453125 Z M 2.515625 -8.453125 "/></g></g></g><g fill="#009cf3" fill-opacity="1"><g transform="translate(145.227386, 252.587464)"><g><path d="M 8.046875 -9.75 C 8.242188 -9.75 8.398438 -9.6875 8.515625 -9.5625 C 8.628906 -9.4375 8.6875 -9.273438 8.6875 -9.078125 L 8.6875 -3.734375 C 8.6875 -3.003906 8.523438 -2.347656 8.203125 -1.765625 C 7.878906 -1.179688 7.429688 -0.722656 6.859375 -0.390625 C 6.285156 -0.0664062 5.644531 0.09375 4.9375 0.09375 C 4.21875 0.09375 3.566406 -0.0664062 2.984375 -0.390625 C 2.410156 -0.722656 1.960938 -1.179688 1.640625 -1.765625 C 1.316406 -2.347656 1.15625 -3.003906 1.15625 -3.734375 L 1.15625 -9.078125 C 1.15625 -9.273438 1.21875 -9.4375 1.34375 -9.5625 C 1.476562 -9.6875 1.644531 -9.75 1.84375 -9.75 C 2.019531 -9.75 2.175781 -9.679688 2.3125 -9.546875 C 2.445312 -9.421875 2.515625 -9.265625 2.515625 -9.078125 L 2.515625 -3.734375 C 2.515625 -3.253906 2.625 -2.820312 2.84375 -2.4375 C 3.070312 -2.050781 3.367188 -1.75 3.734375 -1.53125 C 4.109375 -1.320312 4.507812 -1.21875 4.9375 -1.21875 C 5.382812 -1.21875 5.796875 -1.320312 6.171875 -1.53125 C 6.554688 -1.75 6.859375 -2.050781 7.078125 -2.4375 C 7.304688 -2.820312 7.421875 -3.253906 7.421875 -3.734375 L 7.421875 -9.078125 C 7.421875 -9.273438 7.476562 -9.4375 7.59375 -9.5625 C 7.707031 -9.6875 7.859375 -9.75 8.046875 -9.75 Z M 8.046875 -9.75 "/></g></g></g><g fill="#009cf3" fill-opacity="1"><g transform="translate(155.069938, 252.587464)"><g><path d="M 8.421875 -9.734375 C 8.597656 -9.734375 8.742188 -9.675781 8.859375 -9.5625 C 8.972656 -9.445312 9.03125 -9.300781 9.03125 -9.125 L 9.03125 -0.6875 C 9.03125 -0.488281 8.96875 -0.320312 8.84375 -0.1875 C 8.71875 -0.0625 8.554688 0 8.359375 0 C 8.253906 0 8.148438 -0.015625 8.046875 -0.046875 C 7.953125 -0.078125 7.878906 -0.125 7.828125 -0.1875 L 2.359375 -7.3125 L 2.359375 -0.609375 C 2.359375 -0.429688 2.300781 -0.285156 2.1875 -0.171875 C 2.070312 -0.0546875 1.925781 0 1.75 0 C 1.570312 0 1.425781 -0.0546875 1.3125 -0.171875 C 1.207031 -0.285156 1.15625 -0.429688 1.15625 -0.609375 L 1.15625 -9.0625 C 1.15625 -9.257812 1.21875 -9.421875 1.34375 -9.546875 C 1.46875 -9.671875 1.625 -9.734375 1.8125 -9.734375 C 1.914062 -9.734375 2.019531 -9.710938 2.125 -9.671875 C 2.226562 -9.628906 2.304688 -9.570312 2.359375 -9.5 L 7.8125 -2.359375 L 7.8125 -9.125 C 7.8125 -9.300781 7.867188 -9.445312 7.984375 -9.5625 C 8.097656 -9.675781 8.242188 -9.734375 8.421875 -9.734375 Z M 8.421875 -9.734375 "/></g></g></g><g fill="#009cf3" fill-opacity="1"><g transform="translate(165.246138, 252.587464)"><g><path d="M 8.421875 -9.734375 C 8.597656 -9.734375 8.742188 -9.675781 8.859375 -9.5625 C 8.972656 -9.445312 9.03125 -9.300781 9.03125 -9.125 L 9.03125 -0.6875 C 9.03125 -0.488281 8.96875 -0.320312 8.84375 -0.1875 C 8.71875 -0.0625 8.554688 0 8.359375 0 C 8.253906 0 8.148438 -0.015625 8.046875 -0.046875 C 7.953125 -0.078125 7.878906 -0.125 7.828125 -0.1875 L 2.359375 -7.3125 L 2.359375 -0.609375 C 2.359375 -0.429688 2.300781 -0.285156 2.1875 -0.171875 C 2.070312 -0.0546875 1.925781 0 1.75 0 C 1.570312 0 1.425781 -0.0546875 1.3125 -0.171875 C 1.207031 -0.285156 1.15625 -0.429688 1.15625 -0.609375 L 1.15625 -9.0625 C 1.15625 -9.257812 1.21875 -9.421875 1.34375 -9.546875 C 1.46875 -9.671875 1.625 -9.734375 1.8125 -9.734375 C 1.914062 -9.734375 2.019531 -9.710938 2.125 -9.671875 C 2.226562 -9.628906 2.304688 -9.570312 2.359375 -9.5 L 7.8125 -2.359375 L 7.8125 -9.125 C 7.8125 -9.300781 7.867188 -9.445312 7.984375 -9.5625 C 8.097656 -9.675781 8.242188 -9.734375 8.421875 -9.734375 Z M 8.421875 -9.734375 "/></g></g></g><g fill="#009cf3" fill-opacity="1"><g transform="translate(175.422338, 252.587464)"><g><path d="M 7.84375 -9.109375 C 7.84375 -8.972656 7.800781 -8.832031 7.71875 -8.6875 L 4.734375 -4.484375 L 4.734375 -0.671875 C 4.734375 -0.484375 4.671875 -0.320312 4.546875 -0.1875 C 4.421875 -0.0625 4.269531 0 4.09375 0 C 3.90625 0 3.742188 -0.0625 3.609375 -0.1875 C 3.484375 -0.320312 3.421875 -0.484375 3.421875 -0.671875 L 3.421875 -4.59375 L 0.4375 -8.609375 C 0.3125 -8.773438 0.25 -8.941406 0.25 -9.109375 C 0.25 -9.296875 0.320312 -9.453125 0.46875 -9.578125 C 0.613281 -9.710938 0.773438 -9.78125 0.953125 -9.78125 C 1.171875 -9.78125 1.351562 -9.675781 1.5 -9.46875 L 4.109375 -5.859375 L 6.640625 -9.453125 C 6.785156 -9.671875 6.96875 -9.78125 7.1875 -9.78125 C 7.363281 -9.78125 7.515625 -9.710938 7.640625 -9.578125 C 7.773438 -9.453125 7.84375 -9.296875 7.84375 -9.109375 Z M 7.84375 -9.109375 "/></g></g></g><g fill="#009cf3" fill-opacity="1"><g transform="translate(183.499352, 252.587464)"><g/></g></g><g fill="#009cf3" fill-opacity="1"><g transform="translate(187.350181, 252.587464)"><g><path d="M 7.46875 -9.734375 C 7.664062 -9.734375 7.828125 -9.675781 7.953125 -9.5625 C 8.078125 -9.445312 8.140625 -9.289062 8.140625 -9.09375 C 8.140625 -8.894531 8.078125 -8.738281 7.953125 -8.625 C 7.828125 -8.519531 7.664062 -8.46875 7.46875 -8.46875 L 5 -8.46875 L 5 -0.671875 C 5 -0.484375 4.929688 -0.320312 4.796875 -0.1875 C 4.660156 -0.0625 4.488281 0 4.28125 0 C 4.082031 0 3.914062 -0.0625 3.78125 -0.1875 C 3.644531 -0.320312 3.578125 -0.484375 3.578125 -0.671875 L 3.578125 -8.46875 L 1.109375 -8.46875 C 0.921875 -8.46875 0.757812 -8.523438 0.625 -8.640625 C 0.5 -8.753906 0.4375 -8.910156 0.4375 -9.109375 C 0.4375 -9.296875 0.5 -9.445312 0.625 -9.5625 C 0.757812 -9.675781 0.921875 -9.734375 1.109375 -9.734375 Z M 7.46875 -9.734375 "/></g></g></g><g fill="#009cf3" fill-opacity="1"><g transform="translate(195.927666, 252.587464)"><g><path d="M 10 -4.859375 C 10 -3.929688 9.796875 -3.085938 9.390625 -2.328125 C 8.984375 -1.566406 8.421875 -0.960938 7.703125 -0.515625 C 6.992188 -0.078125 6.191406 0.140625 5.296875 0.140625 C 4.398438 0.140625 3.59375 -0.078125 2.875 -0.515625 C 2.164062 -0.960938 1.609375 -1.566406 1.203125 -2.328125 C 0.796875 -3.085938 0.59375 -3.929688 0.59375 -4.859375 C 0.59375 -5.796875 0.796875 -6.644531 1.203125 -7.40625 C 1.609375 -8.164062 2.164062 -8.765625 2.875 -9.203125 C 3.59375 -9.648438 4.398438 -9.875 5.296875 -9.875 C 6.191406 -9.875 6.992188 -9.648438 7.703125 -9.203125 C 8.421875 -8.765625 8.984375 -8.164062 9.390625 -7.40625 C 9.796875 -6.644531 10 -5.796875 10 -4.859375 Z M 8.5625 -4.859375 C 8.5625 -5.554688 8.421875 -6.1875 8.140625 -6.75 C 7.867188 -7.3125 7.484375 -7.75 6.984375 -8.0625 C 6.492188 -8.382812 5.929688 -8.546875 5.296875 -8.546875 C 4.671875 -8.546875 4.109375 -8.390625 3.609375 -8.078125 C 3.109375 -7.765625 2.71875 -7.328125 2.4375 -6.765625 C 2.164062 -6.203125 2.03125 -5.566406 2.03125 -4.859375 C 2.03125 -4.171875 2.164062 -3.546875 2.4375 -2.984375 C 2.71875 -2.421875 3.109375 -1.976562 3.609375 -1.65625 C 4.109375 -1.34375 4.671875 -1.1875 5.296875 -1.1875 C 5.929688 -1.1875 6.492188 -1.34375 6.984375 -1.65625 C 7.484375 -1.976562 7.867188 -2.421875 8.140625 -2.984375 C 8.421875 -3.546875 8.5625 -4.171875 8.5625 -4.859375 Z M 8.5625 -4.859375 "/></g></g></g><g fill="#009cf3" fill-opacity="1"><g transform="translate(206.520932, 252.587464)"><g/></g></g><g fill="#009cf3" fill-opacity="1"><g transform="translate(210.371761, 252.587464)"><g><path d="M 6.65625 -1.28125 C 6.851562 -1.28125 7.015625 -1.210938 7.140625 -1.078125 C 7.265625 -0.953125 7.328125 -0.800781 7.328125 -0.625 C 7.328125 -0.4375 7.265625 -0.285156 7.140625 -0.171875 C 7.015625 -0.0546875 6.851562 0 6.65625 0 L 1.828125 0 C 1.640625 0 1.476562 -0.0625 1.34375 -0.1875 C 1.21875 -0.320312 1.15625 -0.484375 1.15625 -0.671875 L 1.15625 -9.0625 C 1.15625 -9.25 1.21875 -9.40625 1.34375 -9.53125 C 1.476562 -9.664062 1.640625 -9.734375 1.828125 -9.734375 L 6.65625 -9.734375 C 6.851562 -9.734375 7.015625 -9.671875 7.140625 -9.546875 C 7.265625 -9.429688 7.328125 -9.273438 7.328125 -9.078125 C 7.328125 -8.890625 7.265625 -8.738281 7.140625 -8.625 C 7.015625 -8.507812 6.851562 -8.453125 6.65625 -8.453125 L 2.53125 -8.453125 L 2.53125 -5.625 L 6.03125 -5.625 C 6.226562 -5.625 6.390625 -5.5625 6.515625 -5.4375 C 6.640625 -5.3125 6.703125 -5.160156 6.703125 -4.984375 C 6.703125 -4.785156 6.640625 -4.628906 6.515625 -4.515625 C 6.390625 -4.410156 6.226562 -4.359375 6.03125 -4.359375 L 2.53125 -4.359375 L 2.53125 -1.28125 Z M 6.65625 -1.28125 "/></g></g></g><g fill="#009cf3" fill-opacity="1"><g transform="translate(218.295859, 252.587464)"><g><path d="M 8.234375 -9.75 C 8.421875 -9.75 8.578125 -9.6875 8.703125 -9.5625 C 8.835938 -9.445312 8.90625 -9.300781 8.90625 -9.125 C 8.90625 -9.03125 8.882812 -8.925781 8.84375 -8.8125 L 5.296875 -0.4375 C 5.234375 -0.289062 5.140625 -0.179688 5.015625 -0.109375 C 4.898438 -0.0351562 4.773438 0 4.640625 0 C 4.523438 -0.0078125 4.410156 -0.046875 4.296875 -0.109375 C 4.191406 -0.179688 4.109375 -0.285156 4.046875 -0.421875 L 0.5 -8.8125 C 0.457031 -8.882812 0.4375 -8.984375 0.4375 -9.109375 C 0.4375 -9.304688 0.503906 -9.460938 0.640625 -9.578125 C 0.785156 -9.703125 0.941406 -9.765625 1.109375 -9.765625 C 1.390625 -9.765625 1.59375 -9.613281 1.71875 -9.3125 L 4.75 -2.15625 L 7.625 -9.328125 C 7.6875 -9.460938 7.769531 -9.566406 7.875 -9.640625 C 7.976562 -9.710938 8.097656 -9.75 8.234375 -9.75 Z M 8.234375 -9.75 "/></g></g></g><g fill="#009cf3" fill-opacity="1"><g transform="translate(227.637953, 252.587464)"><g><path d="M 6.65625 -1.28125 C 6.851562 -1.28125 7.015625 -1.210938 7.140625 -1.078125 C 7.265625 -0.953125 7.328125 -0.800781 7.328125 -0.625 C 7.328125 -0.4375 7.265625 -0.285156 7.140625 -0.171875 C 7.015625 -0.0546875 6.851562 0 6.65625 0 L 1.828125 0 C 1.640625 0 1.476562 -0.0625 1.34375 -0.1875 C 1.21875 -0.320312 1.15625 -0.484375 1.15625 -0.671875 L 1.15625 -9.0625 C 1.15625 -9.25 1.21875 -9.40625 1.34375 -9.53125 C 1.476562 -9.664062 1.640625 -9.734375 1.828125 -9.734375 L 6.65625 -9.734375 C 6.851562 -9.734375 7.015625 -9.671875 7.140625 -9.546875 C 7.265625 -9.429688 7.328125 -9.273438 7.328125 -9.078125 C 7.328125 -8.890625 7.265625 -8.738281 7.140625 -8.625 C 7.015625 -8.507812 6.851562 -8.453125 6.65625 -8.453125 L 2.53125 -8.453125 L 2.53125 -5.625 L 6.03125 -5.625 C 6.226562 -5.625 6.390625 -5.5625 6.515625 -5.4375 C 6.640625 -5.3125 6.703125 -5.160156 6.703125 -4.984375 C 6.703125 -4.785156 6.640625 -4.628906 6.515625 -4.515625 C 6.390625 -4.410156 6.226562 -4.359375 6.03125 -4.359375 L 2.53125 -4.359375 L 2.53125 -1.28125 Z M 6.65625 -1.28125 "/></g></g></g><g fill="#009cf3" fill-opacity="1"><g transform="translate(235.562051, 252.587464)"><g><path d="M 8.5625 -1.109375 C 8.65625 -1.046875 8.726562 -0.960938 8.78125 -0.859375 C 8.84375 -0.765625 8.875 -0.664062 8.875 -0.5625 C 8.875 -0.375 8.8125 -0.234375 8.6875 -0.140625 C 8.5625 -0.046875 8.410156 0 8.234375 0 C 8.054688 0 7.90625 -0.0351562 7.78125 -0.109375 C 7.507812 -0.265625 7.285156 -0.519531 7.109375 -0.875 C 6.929688 -1.226562 6.84375 -1.75 6.84375 -2.4375 C 6.84375 -2.894531 6.703125 -3.234375 6.421875 -3.453125 C 6.140625 -3.679688 5.78125 -3.796875 5.34375 -3.796875 L 2.53125 -3.796875 L 2.53125 -0.671875 C 2.53125 -0.472656 2.472656 -0.3125 2.359375 -0.1875 C 2.253906 -0.0625 2.113281 0 1.9375 0 C 1.71875 0 1.53125 -0.0625 1.375 -0.1875 C 1.226562 -0.320312 1.15625 -0.484375 1.15625 -0.671875 L 1.15625 -9.0625 C 1.15625 -9.25 1.21875 -9.40625 1.34375 -9.53125 C 1.476562 -9.664062 1.640625 -9.734375 1.828125 -9.734375 L 5.734375 -9.734375 C 6.234375 -9.734375 6.691406 -9.609375 7.109375 -9.359375 C 7.523438 -9.117188 7.859375 -8.78125 8.109375 -8.34375 C 8.359375 -7.914062 8.484375 -7.429688 8.484375 -6.890625 C 8.484375 -6.378906 8.34375 -5.894531 8.0625 -5.4375 C 7.78125 -4.988281 7.425781 -4.65625 7 -4.4375 C 7.34375 -4.257812 7.613281 -4.007812 7.8125 -3.6875 C 8.007812 -3.375 8.117188 -3.007812 8.140625 -2.59375 C 8.171875 -2.070312 8.207031 -1.710938 8.25 -1.515625 C 8.300781 -1.328125 8.40625 -1.191406 8.5625 -1.109375 Z M 5.703125 -4.953125 C 5.929688 -4.972656 6.148438 -5.066406 6.359375 -5.234375 C 6.566406 -5.398438 6.734375 -5.625 6.859375 -5.90625 C 6.992188 -6.1875 7.0625 -6.503906 7.0625 -6.859375 C 7.0625 -7.296875 6.925781 -7.671875 6.65625 -7.984375 C 6.382812 -8.296875 6.050781 -8.453125 5.65625 -8.453125 L 2.53125 -8.453125 L 2.53125 -4.953125 Z M 5.703125 -4.953125 "/></g></g></g><g fill="#009cf3" fill-opacity="1"><g transform="translate(245.015352, 252.587464)"><g><path d="M 7.84375 -9.109375 C 7.84375 -8.972656 7.800781 -8.832031 7.71875 -8.6875 L 4.734375 -4.484375 L 4.734375 -0.671875 C 4.734375 -0.484375 4.671875 -0.320312 4.546875 -0.1875 C 4.421875 -0.0625 4.269531 0 4.09375 0 C 3.90625 0 3.742188 -0.0625 3.609375 -0.1875 C 3.484375 -0.320312 3.421875 -0.484375 3.421875 -0.671875 L 3.421875 -4.59375 L 0.4375 -8.609375 C 0.3125 -8.773438 0.25 -8.941406 0.25 -9.109375 C 0.25 -9.296875 0.320312 -9.453125 0.46875 -9.578125 C 0.613281 -9.710938 0.773438 -9.78125 0.953125 -9.78125 C 1.171875 -9.78125 1.351562 -9.675781 1.5 -9.46875 L 4.109375 -5.859375 L 6.640625 -9.453125 C 6.785156 -9.671875 6.96875 -9.78125 7.1875 -9.78125 C 7.363281 -9.78125 7.515625 -9.710938 7.640625 -9.578125 C 7.773438 -9.453125 7.84375 -9.296875 7.84375 -9.109375 Z M 7.84375 -9.109375 "/></g></g></g><g fill="#009cf3" fill-opacity="1"><g transform="translate(253.092366, 252.587464)"><g><path d="M 10 -4.859375 C 10 -3.929688 9.796875 -3.085938 9.390625 -2.328125 C 8.984375 -1.566406 8.421875 -0.960938 7.703125 -0.515625 C 6.992188 -0.078125 6.191406 0.140625 5.296875 0.140625 C 4.398438 0.140625 3.59375 -0.078125 2.875 -0.515625 C 2.164062 -0.960938 1.609375 -1.566406 1.203125 -2.328125 C 0.796875 -3.085938 0.59375 -3.929688 0.59375 -4.859375 C 0.59375 -5.796875 0.796875 -6.644531 1.203125 -7.40625 C 1.609375 -8.164062 2.164062 -8.765625 2.875 -9.203125 C 3.59375 -9.648438 4.398438 -9.875 5.296875 -9.875 C 6.191406 -9.875 6.992188 -9.648438 7.703125 -9.203125 C 8.421875 -8.765625 8.984375 -8.164062 9.390625 -7.40625 C 9.796875 -6.644531 10 -5.796875 10 -4.859375 Z M 8.5625 -4.859375 C 8.5625 -5.554688 8.421875 -6.1875 8.140625 -6.75 C 7.867188 -7.3125 7.484375 -7.75 6.984375 -8.0625 C 6.492188 -8.382812 5.929688 -8.546875 5.296875 -8.546875 C 4.671875 -8.546875 4.109375 -8.390625 3.609375 -8.078125 C 3.109375 -7.765625 2.71875 -7.328125 2.4375 -6.765625 C 2.164062 -6.203125 2.03125 -5.566406 2.03125 -4.859375 C 2.03125 -4.171875 2.164062 -3.546875 2.4375 -2.984375 C 2.71875 -2.421875 3.109375 -1.976562 3.609375 -1.65625 C 4.109375 -1.34375 4.671875 -1.1875 5.296875 -1.1875 C 5.929688 -1.1875 6.492188 -1.34375 6.984375 -1.65625 C 7.484375 -1.976562 7.867188 -2.421875 8.140625 -2.984375 C 8.421875 -3.546875 8.5625 -4.171875 8.5625 -4.859375 Z M 8.5625 -4.859375 "/></g></g></g><g fill="#009cf3" fill-opacity="1"><g transform="translate(263.685632, 252.587464)"><g><path d="M 8.421875 -9.734375 C 8.597656 -9.734375 8.742188 -9.675781 8.859375 -9.5625 C 8.972656 -9.445312 9.03125 -9.300781 9.03125 -9.125 L 9.03125 -0.6875 C 9.03125 -0.488281 8.96875 -0.320312 8.84375 -0.1875 C 8.71875 -0.0625 8.554688 0 8.359375 0 C 8.253906 0 8.148438 -0.015625 8.046875 -0.046875 C 7.953125 -0.078125 7.878906 -0.125 7.828125 -0.1875 L 2.359375 -7.3125 L 2.359375 -0.609375 C 2.359375 -0.429688 2.300781 -0.285156 2.1875 -0.171875 C 2.070312 -0.0546875 1.925781 0 1.75 0 C 1.570312 0 1.425781 -0.0546875 1.3125 -0.171875 C 1.207031 -0.285156 1.15625 -0.429688 1.15625 -0.609375 L 1.15625 -9.0625 C 1.15625 -9.257812 1.21875 -9.421875 1.34375 -9.546875 C 1.46875 -9.671875 1.625 -9.734375 1.8125 -9.734375 C 1.914062 -9.734375 2.019531 -9.710938 2.125 -9.671875 C 2.226562 -9.628906 2.304688 -9.570312 2.359375 -9.5 L 7.8125 -2.359375 L 7.8125 -9.125 C 7.8125 -9.300781 7.867188 -9.445312 7.984375 -9.5625 C 8.097656 -9.675781 8.242188 -9.734375 8.421875 -9.734375 Z M 8.421875 -9.734375 "/></g></g></g><g fill="#009cf3" fill-opacity="1"><g transform="translate(273.861832, 252.587464)"><g><path d="M 6.65625 -1.28125 C 6.851562 -1.28125 7.015625 -1.210938 7.140625 -1.078125 C 7.265625 -0.953125 7.328125 -0.800781 7.328125 -0.625 C 7.328125 -0.4375 7.265625 -0.285156 7.140625 -0.171875 C 7.015625 -0.0546875 6.851562 0 6.65625 0 L 1.828125 0 C 1.640625 0 1.476562 -0.0625 1.34375 -0.1875 C 1.21875 -0.320312 1.15625 -0.484375 1.15625 -0.671875 L 1.15625 -9.0625 C 1.15625 -9.25 1.21875 -9.40625 1.34375 -9.53125 C 1.476562 -9.664062 1.640625 -9.734375 1.828125 -9.734375 L 6.65625 -9.734375 C 6.851562 -9.734375 7.015625 -9.671875 7.140625 -9.546875 C 7.265625 -9.429688 7.328125 -9.273438 7.328125 -9.078125 C 7.328125 -8.890625 7.265625 -8.738281 7.140625 -8.625 C 7.015625 -8.507812 6.851562 -8.453125 6.65625 -8.453125 L 2.53125 -8.453125 L 2.53125 -5.625 L 6.03125 -5.625 C 6.226562 -5.625 6.390625 -5.5625 6.515625 -5.4375 C 6.640625 -5.3125 6.703125 -5.160156 6.703125 -4.984375 C 6.703125 -4.785156 6.640625 -4.628906 6.515625 -4.515625 C 6.390625 -4.410156 6.226562 -4.359375 6.03125 -4.359375 L 2.53125 -4.359375 L 2.53125 -1.28125 Z M 6.65625 -1.28125 "/></g></g></g></svg>
