<svg xmlns="http://www.w3.org/2000/svg" xmlns:xlink="http://www.w3.org/1999/xlink" width="544" zoomAndPan="magnify" viewBox="0 0 408 293.999989" height="392" preserveAspectRatio="xMidYMid meet" version="1.0"><defs><clipPath id="652fff4d47"><path d="M 225 121 L 315 121 L 315 189 L 225 189 Z M 225 121 " clip-rule="nonzero"/></clipPath><clipPath id="2725f2cdf5"><path d="M 241.335938 218.914062 L 204.140625 155.523438 L 295.347656 102.003906 L 332.542969 165.394531 Z M 241.335938 218.914062 " clip-rule="nonzero"/></clipPath><clipPath id="c1d2d42a07"><path d="M 241.335938 218.914062 L 204.140625 155.523438 L 295.347656 102.003906 L 332.542969 165.394531 Z M 241.335938 218.914062 " clip-rule="nonzero"/></clipPath><clipPath id="8251ac6610"><path d="M 95 118 L 186 118 L 186 186 L 95 186 Z M 95 118 " clip-rule="nonzero"/></clipPath><clipPath id="2f8376a023"><path d="M 204.09375 155.351562 L 167.066406 218.84375 L 75.714844 165.570312 L 112.742188 102.078125 Z M 204.09375 155.351562 " clip-rule="nonzero"/></clipPath><clipPath id="b3cf490256"><path d="M 204.09375 155.351562 L 167.066406 218.84375 L 75.714844 165.570312 L 112.742188 102.078125 Z M 204.09375 155.351562 " clip-rule="nonzero"/></clipPath></defs><g clip-path="url(#652fff4d47)"><g clip-path="url(#2725f2cdf5)"><g clip-path="url(#c1d2d42a07)"><path fill="#009cf3" d="M 251.820312 138.511719 L 225.054688 188.558594 L 280.417969 187.898438 C 292.441406 188.253906 304.148438 182.03125 310.214844 170.6875 C 318.835938 154.5625 312.75 134.292969 296.625 125.402344 C 280.507812 116.515625 260.453125 122.378906 251.820312 138.511719 Z M 251.820312 138.511719 " fill-opacity="1" fill-rule="nonzero"/></g></g></g><path fill="#009cf3" d="M 233.3125 131.558594 L 203.691406 179.972656 L 176.242188 131.890625 C 169.851562 121.699219 169.292969 108.453125 176.007812 97.480469 C 185.550781 81.882812 206.113281 76.875 221.941406 86.28125 C 237.761719 95.6875 242.855469 115.949219 233.3125 131.558594 Z M 233.3125 131.558594 " fill-opacity="1" fill-rule="nonzero"/><g clip-path="url(#8251ac6610)"><g clip-path="url(#2f8376a023)"><g clip-path="url(#b3cf490256)"><path fill="#009cf3" d="M 128.867188 185.617188 L 185.613281 184.421875 L 157.902344 136.488281 C 152.320312 125.832031 141.15625 118.675781 128.296875 118.949219 C 110.015625 119.335938 95.332031 134.574219 95.484375 152.984375 C 95.640625 171.390625 110.578125 186 128.867188 185.617188 Z M 128.867188 185.617188 " fill-opacity="1" fill-rule="nonzero"/></g></g></g></svg>